<svg viewBox="142.848 238.07999999999998 291.84000000000003 287.23199999999997" xmlns:xlink="http://www.w3.org/1999/xlink" xmlns="http://www.w3.org/2000/svg" style="max-height: 500px" width="291.84000000000003" height="287.23199999999997"><path d="M283.756 360.456C292.788 358.805 302.01 362.148 307.885 369.204C313.76 376.261 315.377 385.936 312.117 394.52C308.856 403.103 301.222 409.264 292.144 410.639C278.4 412.722 265.53 403.389 263.238 389.678C260.946 375.968 270.082 362.957 283.756 360.456ZM274.443 385.5C274.412 390.2 276.75 394.601 280.664 397.205C283.586 399.149 287.133 399.921 290.598 399.365C298.149 398.156 303.318 391.093 302.187 383.53C301.057 375.967 294.048 370.725 286.474 371.776C279.612 372.728 274.489 378.572 274.443 385.5Z" fill="#7B3AEE"/><path d="M268.092 276.615C269.941 269.275 272.062 263.27 279.16 259.123C283.504 256.612 288.671 255.937 293.515 257.246C298.77 258.678 303.327 262.396 305.93 267.164C308.278 271.376 308.833 276.355 307.471 280.98C305.375 287.985 300.054 291.987 294.04 295.562C293.826 305.458 292.011 318.675 299.285 325.444C313.059 338.263 332.4 345.417 347.743 356.54C347.972 362.421 347.615 363.506 345.075 368.859C344.78 369.48 349.738 377.684 350.159 380.573C351.153 387.402 345.747 395.342 347.222 401.919C348.222 406.377 347.889 409.021 347.515 412.874C332.695 424.044 316.25 431.507 301.319 442.293C298.044 444.659 296.315 448.146 294.143 451.512L293.992 473.624C299.725 476.252 305.093 479.594 307.495 485.819C309.233 490.344 309.03 495.385 306.932 499.755C299.811 514.568 274.978 516.828 270.128 499.366C266.479 486.233 272.639 478.672 283.543 472.706L282.669 451.529C274.157 437.5 260.481 432.31 245.874 424.271C248.641 420.291 249.256 418.846 251.117 414.475C260.704 419.597 283.39 437.64 293.836 432.946C306.492 427.259 320.928 417.073 332.874 409.331C332.871 406.448 332.937 404.682 333.247 401.819L335.43 400.137C332.163 394.353 327.382 384.426 330.139 376.761C330.988 374.399 335.013 372.2 336.327 368.253C335.915 359.66 317.508 350.628 310.65 346.319C307.275 344.199 293.986 336.19 290.938 336.448C277.923 337.552 259.804 349.735 249.482 356.816C248.245 352.401 247.54 350.032 245.722 345.778C258.547 339.285 274.43 330.875 282.861 318.923L282.748 295.115C274.11 290.228 271.019 287.348 268.281 277.316L268.092 276.615ZM290.634 285.334C293.98 284.555 296.628 282.001 297.525 278.684C298.423 275.368 297.425 271.827 294.928 269.467C292.431 267.107 288.839 266.311 285.579 267.394C280.848 268.965 278.188 273.979 279.54 278.777C280.893 283.576 285.778 286.463 290.634 285.334ZM290.579 501.776C295.589 500.793 298.872 495.957 297.936 490.938C297.001 485.918 292.197 482.589 287.169 483.476C282.072 484.375 278.687 489.26 279.635 494.348C280.584 499.436 285.5 502.774 290.579 501.776Z" fill="#0C6FFE"/><path d="M235.637 307.446C243.722 279.861 273.362 307.47 255.888 320.003C251.791 322.942 242.095 320.083 237.415 318.401C231.172 321.904 222.899 324.845 217.066 328.9C215.646 329.888 215.736 331.772 215.672 333.264C218.863 341.602 237.174 347.577 245.722 345.778C247.54 350.032 248.245 352.401 249.482 356.816C248.094 359.947 247.529 360.774 245.484 363.553C245.291 376.279 244.653 389.622 245.923 402.276C246.454 407.566 248.193 410.212 251.117 414.475C249.256 418.846 248.641 420.291 245.874 424.271C238.435 423.643 217.795 429.096 216.276 437.08C218.373 443.193 231.305 448.485 237.319 451.429C242.983 448.32 249.017 445.625 255.478 448.406C261.555 451.022 262.31 460.726 260.004 466.012C258.536 469.38 256.046 471.239 252.774 472.496C241.254 476.922 238.277 465.084 231.001 459.46C226.248 455.964 218.043 452.117 212.662 449.48C185.083 478.489 161.033 431.72 190.442 420.448C197.163 417.872 205.13 422.432 210.822 425.908C223.747 420.914 227.421 416.931 233.923 405.788L234.055 364.393C231.162 360.749 229.823 358.417 228.033 354.139C222.759 350.764 217.375 347.934 211.873 344.968C208.483 347.212 206.15 348.659 202.522 350.608C202.543 358.18 202.693 365.751 202.971 373.317C205.467 375.512 207.948 377.629 209.239 380.767C210.606 384.145 210.524 387.935 209.014 391.25C207.556 394.437 204.634 397.103 201.342 398.3C198.27 399.446 194.866 399.302 191.903 397.9C186.802 395.496 185.138 391.237 183.306 386.331C185.532 379.916 187.336 377.839 191.9 373.163L192.033 352.286C190.019 351.104 188.052 349.845 186.134 348.513C181.528 345.254 177.855 339.929 176.985 334.299C176.235 329.178 177.574 323.97 180.7 319.845C183.735 315.787 188.291 313.139 193.319 312.509C202.505 311.284 206.153 315.26 212.817 320.361C220.517 316.224 228.126 311.918 235.637 307.446ZM198.416 340.939C201.734 340.196 204.384 337.702 205.326 334.435C206.269 331.168 205.355 327.647 202.943 325.25C200.531 322.853 197.004 321.962 193.743 322.926C188.929 324.349 186.11 329.333 187.37 334.192C188.631 339.051 193.517 342.036 198.416 340.939ZM199.107 448.095C203.765 446.459 206.329 441.465 204.945 436.726C203.561 431.987 198.712 429.159 193.906 430.287C190.559 431.073 187.92 433.642 187.045 436.967C186.17 440.291 187.203 443.827 189.729 446.158C192.256 448.489 195.864 449.234 199.107 448.095ZM250.227 311.642C251.67 310.726 252.098 308.814 251.184 307.37C250.27 305.926 248.359 305.495 246.913 306.407C245.465 307.321 245.034 309.237 245.949 310.683C246.865 312.13 248.781 312.56 250.227 311.642Z" fill="#7B3AEE"/><path d="M323.955 296.326C335.407 295.725 337.094 297.265 341.151 307.775C346.632 311.438 357.27 316.665 363.462 320.109C369.821 314.855 375.852 310.915 384.536 313.076C389.488 314.331 393.728 317.525 396.302 321.938C399.006 326.563 399.698 332.095 398.215 337.243C395.946 345.087 390.923 347.981 384.482 351.591C384.777 373.984 384.5 396.996 384.499 419.439C391.275 423.648 397.532 427.992 398.699 436.638C399.393 441.943 397.873 447.299 394.497 451.449C391.239 455.53 386.443 458.088 381.239 458.52C373.576 459.129 368.744 455.537 363.392 450.896C356.598 454.407 349.467 457.945 342.942 461.886C340.208 465.342 335.622 472.066 331.515 473.622C317.274 479.017 308.706 452.034 322.81 447.59C328.721 445.728 334.61 449.283 339.569 452.014C346.323 448.453 353.097 444.934 359.894 441.455C360.069 430.219 363.403 424.661 373.54 420.215C373.304 397.407 373.529 374.311 373.577 351.481C362.667 344.151 360.666 342.448 359.844 329.134C352.68 325.473 345.456 321.933 338.174 318.513C316.201 327.715 306.405 308.678 323.955 296.326ZM382.095 341.04C386.947 339.605 389.785 334.579 388.509 329.683C387.233 324.787 382.302 321.787 377.368 322.903C374.029 323.658 371.368 326.172 370.423 329.462C369.479 332.752 370.403 336.295 372.833 338.705C375.263 341.116 378.813 342.01 382.095 341.04ZM382.85 447.861C387.6 446.11 390.087 440.89 388.455 436.098C386.823 431.306 381.667 428.689 376.836 430.2C373.601 431.213 371.169 433.899 370.484 437.218C369.798 440.537 370.966 443.967 373.535 446.178C376.104 448.389 379.67 449.033 382.85 447.861Z" fill="#0C6FFE"/></svg>