<svg viewBox="142.848 238.07999999999998 1264.128 291.84000000000003" xmlns:xlink="http://www.w3.org/1999/xlink" xmlns="http://www.w3.org/2000/svg" style="max-height: 500px" width="1264.128" height="291.84000000000003"><path d="M728.485 315.654C766.996 309.437 803.2 335.78 809.131 374.336C815.063 412.892 788.451 448.899 749.852 454.544C711.656 460.131 676.107 433.857 670.237 395.704C664.367 357.55 690.376 321.807 728.485 315.654ZM745.207 427.468C768.396 424.616 784.906 403.539 782.122 380.341C779.339 357.143 758.31 340.57 735.104 343.286C711.801 346.013 695.144 367.148 697.94 390.443C700.736 413.738 721.92 430.332 745.207 427.468Z" fill="#0D6EFD"/><path d="M1014.46 345.533C1044.35 342.783 1070.8 364.827 1073.48 394.728C1076.16 424.629 1054.06 451.026 1024.15 453.638C994.343 456.24 968.051 434.223 965.379 404.42C962.707 374.617 984.663 348.275 1014.46 345.533ZM1022.6 427.255C1037.85 425.48 1048.77 411.671 1046.98 396.422C1045.19 381.174 1031.37 370.269 1016.12 372.075C1000.9 373.878 990.014 387.674 991.802 402.901C993.589 418.128 1007.37 429.027 1022.6 427.255Z" fill="#7C3AED"/><path d="M489.39 316.748C511.539 314.55 532.099 321.876 547.98 337.465C544.853 342.615 537.394 352.274 533.56 357.515C520.064 349.46 493.091 335.511 477.079 348.469C475.53 349.723 473.54 354.647 474.143 356.285C479.446 370.705 508.597 368.223 521.041 374.518C528.509 376.982 535.66 379.994 541.549 385.48C556.152 399.082 558.347 421.707 543.805 436.441C530.939 449.476 516.919 452.977 499.168 453.649C498.765 453.64 498.363 453.625 497.961 453.603C475.962 452.383 456.998 442.658 442.248 426.36C447.345 421.053 455.408 414.1 461.021 409.477C475.688 421.481 488.247 428.273 507.828 426.49C514.657 426.102 522.642 422.745 524.524 415.358C527.74 403.367 510.51 398.339 500.144 396.709C466.6 391.434 428.69 376.05 453.523 334.861C459.816 324.423 476.479 318.373 489.39 316.748Z" fill="#0D6EFD"/><path d="M846.997 333.343C858.271 307.271 883.59 319.91 907.357 316.902C945.689 312.05 971.563 360.029 935.186 382.918C969.034 396.106 961.351 438.445 932.729 449.578C922.296 453.635 890.485 452.781 878.422 452.293C878.473 450.301 878.5 448.31 878.502 446.318C879.004 439.817 878.813 432.448 878.79 425.864C895.751 425.358 944.987 433.415 925.752 400.525C922.01 394.127 887.533 396.826 879.632 396.493C879.718 388.07 879.685 379.646 879.532 371.225C887.652 371.15 916.905 374.112 921.568 367.852C934.282 350.783 918.596 343.206 902.655 344.345C877.907 344.291 867.519 348.476 846.997 333.343Z" fill="#7C3AED"/><path d="M284.359 360.314C298.137 358.133 311.106 367.439 313.452 381.19C315.798 394.941 306.648 408.02 292.926 410.531C283.903 412.181 274.689 408.853 268.803 401.817C262.918 394.78 261.27 385.123 264.49 376.533C267.71 367.944 275.299 361.749 284.359 360.314ZM292.874 398.78C300.211 396.29 304.127 388.312 301.61 380.984C299.093 373.656 291.101 369.769 283.783 372.312C276.501 374.842 272.637 382.785 275.141 390.076C277.646 397.366 285.575 401.259 292.874 398.78Z" fill="#7C3AED"/><path d="M235.785 307.372C236.84 302.621 238.245 298.979 242.979 297.202C266.295 288.45 270.193 333.338 237.904 318.414C231.632 321.156 224.984 325.168 218.358 327.711C216.08 328.585 215.747 329.771 215.095 331.647C216.492 338.331 228.75 343.835 234.835 345.689C235.813 345.987 244.03 345.773 245.693 345.763C247.669 350.332 248.132 351.942 249.262 356.754C248.988 359.965 247.544 360.959 245.214 363.294C245.124 375.861 244.129 394.112 246.22 406.219C246.405 407.29 249.982 412.643 250.948 414.419C249.329 418.691 248.816 420.459 245.912 424.122C240.381 425.534 234.845 423.545 230.786 426.466C225.876 430 216.008 431.343 216.239 438.115C218.864 443.163 231.814 448.375 237.664 451.237C245.563 446.008 256.438 443.646 260.426 454.791C261.784 458.6 261.532 462.798 259.729 466.417C256.67 472.475 251.013 474.284 244.709 472.669C237.192 470.743 237.888 463.758 231.623 459.817C225.438 455.925 219.086 452.756 212.616 449.382C200.983 463.839 180.441 460.411 177.087 443.292C176.016 437.94 177.188 432.382 180.331 427.918C183.216 423.778 187.638 420.965 192.611 420.107C200.493 418.782 204.892 421.903 210.791 426.087C215.121 423.823 225.774 418.604 228.702 415.312C229.875 413.994 229.489 411.096 233.965 406.373L234.094 363.544C230.78 361.134 229.266 358.251 228.526 354.28C222.962 351.012 217.305 347.903 211.564 344.956C208.167 347.395 206.364 348.792 202.49 350.546L202.55 374.007C221.923 384.073 201.242 409.444 188.111 395.262C180.687 387.242 184.423 379.758 191.995 373.353L192.039 351.83C178.553 345.834 170.74 331.829 181.276 319.354C184.638 315.419 189.41 312.96 194.566 312.505C202.813 311.859 207.007 315.365 212.699 320.262C220.79 315.984 227.932 312.064 235.785 307.372ZM199.18 448.196C202.413 447.079 204.777 444.283 205.34 440.909C205.904 437.535 204.577 434.123 201.883 432.015C199.188 429.908 195.557 429.443 192.418 430.802C187.813 432.797 185.608 438.076 187.427 442.754C189.246 447.432 194.437 449.836 199.18 448.196ZM199.401 389.037C200.523 387.98 202.438 386.963 202.531 386.205C201.756 384.262 197.317 383.122 195.45 382.812C193.165 387.035 193.79 389.309 199.401 389.037ZM250.374 311.662C251.749 310.676 252.116 308.789 251.211 307.36C250.305 305.931 248.443 305.456 246.964 306.278C245.929 306.853 245.297 307.954 245.323 309.138C245.348 310.322 246.028 311.394 247.087 311.923C248.146 312.453 249.412 312.352 250.374 311.662ZM198.512 340.98C201.871 340.207 204.532 337.65 205.437 334.324C206.342 330.999 205.344 327.446 202.841 325.078C200.337 322.71 196.734 321.911 193.464 323C188.73 324.576 186.068 329.593 187.417 334.396C188.766 339.2 193.65 342.098 198.512 340.98ZM249.383 462.901C250.852 462.493 251.791 461.061 251.58 459.552C251.37 458.043 250.074 456.922 248.55 456.932C247.368 456.94 246.297 457.633 245.805 458.708C245.313 459.783 245.49 461.046 246.257 461.945C247.025 462.845 248.244 463.218 249.383 462.901Z" fill="#7C3AED"/><path d="M1099.49 321.955C1101.23 321.719 1102.98 321.593 1104.74 321.579C1119.82 321.529 1117.43 338.339 1117.3 348.721C1125.59 349.27 1144.69 346.707 1147.66 352.041C1158.48 371.455 1139.47 375.191 1124.43 373.436C1122.17 373.173 1118.27 373.385 1117.38 373.377C1117.54 384.626 1114.69 415.348 1121.57 423.244C1125.05 427.233 1141.57 425.924 1147.67 425.927L1147.51 446.55C1142.57 454.847 1135.1 452.163 1126.6 452.225C1116.57 452.298 1107.44 447.79 1100.76 440.469C1089.22 427.828 1089.87 412.186 1090.03 396.27C1090.05 388.627 1089.9 380.967 1090.27 373.336C1085.09 373.426 1079.75 373.313 1074.56 373.262C1074.29 365.171 1074.43 357.02 1074.51 348.922L1089.92 348.6C1089.56 336.224 1086.73 327.637 1099.49 321.955Z" fill="#7C3AED"/><path d="M1256.25 317.323C1263.95 316.847 1268.75 318.253 1272.47 325.648C1288.38 357.296 1303.88 389.186 1319.21 421.123C1321.17 425.904 1324.42 431.261 1325.91 436.16C1328.98 446.255 1317.23 456.145 1307.71 452.561C1299.84 449.601 1297.1 441.244 1293.88 434.37L1289.07 425.252C1271.87 425.032 1254.67 424.962 1237.47 425.043C1240.93 417.041 1245.84 407.495 1249.69 399.503C1256.74 398.831 1269.33 399.779 1277.55 399.545C1266.86 378.766 1256.91 357.465 1246.53 336.524C1242.04 327.453 1248.3 320.879 1256.25 317.323Z" fill="#0D6EFD"/><path d="M324.041 296.398C333.668 295.237 339.249 298.043 340.68 307.897C348.248 312.059 355.925 316.023 363.701 319.783C365.937 317.848 368.638 315.607 371.286 314.336C376.04 312.027 381.531 311.756 386.49 313.585C391.384 315.433 395.328 319.174 397.434 323.963C399.535 328.808 399.613 334.293 397.652 339.197C394.909 345.93 390.684 348.5 384.487 351.201L384.424 419.712C392.179 423.936 398.456 428.178 398.945 438.031C399.249 443.232 397.435 448.334 393.914 452.174C390.425 456.059 385.509 458.361 380.291 458.554C373.006 458.796 368.301 455.483 363.265 450.857C357.629 454.148 346.468 459.339 342.056 462.338C337.955 469.117 330.515 478.618 321.74 472.057C318.454 469.57 316.299 465.874 315.754 461.79C313.725 446.571 327.401 442.715 339.237 452.031L360.023 441.347C359.9 431.043 363.619 423.839 373.559 420.387L373.718 351.357C363.072 345.077 360.157 341.392 359.843 328.969C352.588 325.679 345.368 321.807 338.049 318.409C317.639 329.755 305.97 306.946 324.041 296.398ZM382.101 448.198C387.07 446.843 390.022 441.74 388.718 436.758C387.415 431.775 382.343 428.771 377.347 430.023C374.069 430.845 371.486 433.363 370.581 436.619C369.676 439.874 370.589 443.365 372.972 445.76C375.355 448.155 378.841 449.086 382.101 448.198ZM381.388 341.275C386.409 340.211 389.664 335.336 388.723 330.29C387.781 325.245 382.988 321.872 377.921 322.689C374.531 323.236 371.704 325.578 370.536 328.806C369.367 332.035 370.04 335.643 372.294 338.233C374.548 340.823 378.029 341.987 381.388 341.275ZM330.441 462.903C331.997 461.781 332.364 459.616 331.263 458.043C330.163 456.471 328.003 456.074 326.415 457.152C325.368 457.863 324.784 459.083 324.888 460.345C324.992 461.607 325.768 462.715 326.918 463.244C328.068 463.774 329.414 463.644 330.441 462.903ZM330.702 312.401C333.706 307.969 331.285 306.153 326.66 305.564C322.85 310.886 325.177 311.67 330.702 312.401Z" fill="#0D6EFD"/><path d="M565.577 340.088C595.123 351.675 592.675 361.755 592.426 389.694L592.294 425.422C606.146 427.229 653.29 422.339 661.39 428.715C663.981 430.754 665.403 433.913 665.752 437.142C666.278 442.007 664.956 445.166 662.023 448.927C653.297 455.614 625.683 451.602 614.045 452.394C562.29 455.92 565.551 446.894 565.648 402.254L565.577 340.088Z" fill="#0D6EFD"/><path d="M1346.79 317.364C1354.63 317.191 1357.65 319.295 1361.92 325.545C1363.51 338.511 1362.26 363.993 1362.56 377.867C1362.43 398.202 1362.82 418.578 1362.38 438.905C1362.21 446.999 1357.62 450.563 1350.53 452.85C1334.97 452.934 1334.81 444.469 1334.88 431.883C1335.05 398.251 1334.34 364.598 1334.63 330.971C1334.71 322.089 1338.66 319.44 1346.79 317.364Z" fill="#0D6EFD"/><path d="M282.871 295.068C272.06 290.35 265.163 279.733 270.631 268.231C273.099 263.132 277.521 259.246 282.895 257.454C303.579 250.641 321.958 281.354 293.996 295.408C293.853 306.496 291.603 319.296 299.728 326.276C313.264 337.906 333.106 346.088 347.446 356.276C347.516 359.557 347.968 364.035 346.652 366.887C345.699 367.517 345.077 368.021 343.97 368.341C350.659 378.595 351.205 378.505 348.666 392.013C348.032 395.388 346.493 395.368 345.947 399.181C343.052 399.304 339.472 399.587 336.546 399.823C329.451 396.421 328.202 381.111 330.995 374.578L332.624 375.023C335.679 371.894 332.334 372.583 337.222 367.539L334.753 367.004C332.731 364.001 333.981 365.431 333.76 361.434C333.743 361.133 333.415 360.059 333.234 359.947C321.263 352.526 305.976 344.371 294.609 336.594C292.889 336.582 286.557 336.507 285.312 336.941C274.465 340.722 258.634 350.413 249.262 356.754C248.132 351.942 247.669 350.332 245.693 345.763C254.275 341.531 273.62 330.962 279.508 323.363C280.868 321.608 280.74 320.914 282.994 318.987L282.871 295.068ZM291.205 285.2C294.457 284.226 296.929 281.572 297.67 278.259C298.411 274.947 297.305 271.492 294.778 269.226C292.252 266.959 288.698 266.233 285.485 267.328C280.644 268.978 278.015 274.2 279.574 279.071C281.133 283.942 286.306 286.668 291.205 285.2Z" fill="#0D6EFD"/><path d="M1240.8 339.523C1242.68 341.542 1254.38 366.266 1256.62 370.901L1234.93 415.942C1229.68 426.929 1224.44 440.352 1216.88 449.885C1215.51 451.606 1212.5 452.495 1210.42 453.081C1200.87 452.657 1192.26 446.255 1195.45 435.784C1198.64 425.317 1205.34 413.252 1210.16 403.191L1240.8 339.523Z" fill="#0D6EFD"/><path d="M336.546 399.823C339.472 399.587 343.052 399.304 345.947 399.181L346.897 400.103C348.524 402.604 347.555 409.658 347.229 412.861C340.06 419.651 309.405 435.883 298.603 443.656C297.039 447.521 296.751 448.333 293.955 451.337L293.866 473.697C297.792 475.255 299.896 476.347 302.924 479.191C319.18 494.461 298.025 518.699 279.332 510.389C270.085 506.279 266.901 492.896 270.852 484.278C273.442 478.799 278.12 475.542 283.383 472.912C283.327 465.538 283.255 458.924 282.735 451.537C279.076 447.211 279.575 444.482 275.16 441.484C265.839 435.155 255.629 429.803 245.912 424.122C248.816 420.459 249.329 418.691 250.948 414.419C262.124 421.041 271.811 427.348 283.363 433.591L293.77 433.556C304.328 427.556 323.391 416.118 333.022 409.18C332.961 406.894 332.953 404.943 333.031 402.658C334.381 400.549 333.548 401.176 336.362 400.496L336.546 399.823ZM290.626 501.774C295.539 500.756 298.769 496.038 297.941 491.09C297.114 486.142 292.524 482.732 287.548 483.369C284.153 483.803 281.269 486.058 280.029 489.248C278.789 492.437 279.393 496.049 281.604 498.661C283.814 501.274 287.276 502.468 290.626 501.774Z" fill="#0D6EFD"/><path d="M336.546 399.823C339.472 399.587 343.052 399.304 345.947 399.181L346.897 400.103C342.813 400.853 340.344 401.697 336.362 400.496L336.546 399.823Z" fill="#C3D8F9"/><path d="M846.608 339.454C878.743 354.471 874.026 362.275 874.132 395.107C874.187 412.447 873.681 431.265 874.224 448.602L874.39 452.513C873.127 452.709 871.886 452.767 870.61 452.781C864.062 452.856 857.761 450.281 853.14 445.642C843.895 436.226 846.481 411.607 846.464 398.372C846.347 378.732 846.395 359.092 846.608 339.454Z" fill="#7C3AED"/><path d="M582.318 317.427C603.762 315.581 632.228 317.868 654.059 317.592C666.68 317.433 673.691 342.886 651.178 344.457C636.239 344.386 620.471 344.541 605.542 344.728C586.128 344.971 582.423 344.377 566.095 334.432C569.359 324.825 572.081 320.033 582.318 317.427Z" fill="#0D6EFD"/><path d="M597.764 372.31C614.376 371.495 635.486 372.007 652.416 372.022C652.238 380.811 652.375 390.046 652.383 398.872C636.61 398.878 612.894 399.537 597.778 398.488L597.764 372.31Z" fill="#0D6EFD"/><path d="M878.502 446.318C878.5 448.31 878.473 450.301 878.422 452.293C877.04 452.322 875.767 452.415 874.39 452.513L874.224 448.602C875.668 447.875 877.094 447.113 878.502 446.318Z" fill-opacity="0.98823529" fill="#FDFCFD"/></svg>