<svg viewBox="398.16799999999995 252.35999999999999 855.22 190.67200000000003" xmlns:xlink="http://www.w3.org/1999/xlink" xmlns="http://www.w3.org/2000/svg" style="max-height: 500px" width="855.22" height="190.67200000000003"><path d="M731.143 315.319C769.777 310.625 804.86 338.245 809.367 376.901C813.874 415.558 786.085 450.507 747.408 454.827C708.993 459.118 674.333 431.559 669.857 393.166C665.381 354.773 692.772 319.98 731.143 315.319ZM744.368 427.579C767.613 425.165 784.527 404.404 782.194 381.151C779.861 357.898 759.16 340.911 735.899 343.163C712.522 345.425 695.432 366.252 697.777 389.621C700.122 412.99 721.008 430.006 744.368 427.579Z" transform="matrix(0.91276 0 0 0.91276 0 -6.10352e-05)" fill="#0D6EFE"/><path d="M846.96 333.252C857.952 311.184 874.793 317.639 893.686 317.135C914.156 316.589 932.785 314.546 946.151 334.026C951.421 341.716 953.343 351.216 951.479 360.35C949.38 370.655 943.503 377.029 935.138 382.642C955.231 392.85 962.304 407.354 953.76 429.816C948.207 444.416 932.294 450.839 917.901 452.055C908.062 452.886 897.866 452.655 887.945 452.29C881.464 452.103 874.608 453.109 868.084 452.506C865.547 452.296 863.064 451.655 860.743 450.609C855.342 448.114 851.822 444.776 849.768 439.284C847.875 434.083 846.684 428.653 846.226 423.138C844.303 400.609 847.406 372.563 846.141 349.459C846.013 347.117 846.969 342.279 847.944 340.157L849.512 339.638C855.14 340.584 861.893 348.179 866.498 352.069C874.152 358.534 874.366 371.803 874.729 381.218C874.663 384.598 874.357 391.911 874.681 394.965C873.866 404.247 870.305 441.902 876.223 447.498L877.379 446.616C879.652 442.348 878.992 431.541 878.914 426.21C892.859 425.74 944.954 432.516 926.283 401.811C920.678 392.595 889.788 396.601 879.502 396.123C879.617 392.565 880.281 379.767 879.064 375.455C878.934 374.997 876.37 374.25 875.659 372.114C883.118 367.862 914.048 378.405 923.164 365.749C928.759 357.981 924.066 346.882 916.459 345.454C890.262 340.538 869.976 351.808 846.96 333.252Z" transform="matrix(0.91276 0 0 0.91276 0 -6.10352e-05)" fill="#7A3AEE"/><path d="M1016.47 345.421C1046.19 343.727 1071.7 366.333 1073.6 396.037C1075.49 425.741 1053.06 451.408 1023.37 453.507C993.393 455.627 967.423 432.93 965.508 402.939C963.593 372.947 986.466 347.132 1016.47 345.421ZM1024.66 426.957C1039.85 424.071 1049.77 409.352 1046.75 394.191C1043.72 379.03 1028.91 369.246 1013.78 372.412C998.84 375.536 989.211 390.112 992.198 405.077C995.184 420.041 1009.67 429.805 1024.66 426.957Z" transform="matrix(0.91276 0 0 0.91276 0 -6.10352e-05)" fill="#7A3AEE"/><path d="M490.162 316.756C490.839 316.668 491.518 316.604 492.2 316.564C514.742 315.425 531.537 322.567 547.959 337.535C543.969 343.816 537.978 351.55 533.498 357.685C519.574 349.467 491.279 334.2 476.626 349.498C474.618 351.594 473.667 353.155 473.978 356.198C478.649 367.538 509.428 370.805 520.84 374.426C548.628 383.244 565.408 409.888 544.286 435.75C532.733 449.897 517.163 451.916 499.775 453.625C473.831 451.548 460.827 444.301 442.185 426.608C447.898 420.6 454.443 414.947 460.715 409.515C478.355 422.274 512.215 440.823 525.928 413.036C518.125 397.237 498.903 396.144 482.849 392.767C427.671 381.16 435.948 324.445 490.162 316.756Z" transform="matrix(0.91276 0 0 0.91276 0 -6.10352e-05)" fill="#0D6EFE"/><path d="M1099.5 321.919C1119.51 319.715 1117.65 334.052 1117.37 348.771C1123.86 349.697 1143.14 346.833 1146 350.835C1164.24 376.299 1126.74 373.512 1117.39 373.543C1116.55 384.759 1114.96 413.376 1121.64 422.835C1124.67 427.121 1141.84 426.169 1147.57 426.188C1147.44 432.672 1147.53 439.423 1147.52 445.931C1144.17 453.489 1135.86 452.825 1128.92 452.467C1085.76 450.239 1087.56 404.961 1090.62 373.381C1084.47 373.452 1080.57 373.594 1074.55 372.605C1074.08 364.356 1074.26 357.417 1074.46 349.194C1079.62 348.837 1084.79 348.557 1089.96 348.353C1088.44 335.448 1087.45 329.277 1099.5 321.919Z" transform="matrix(0.91276 0 0 0.91276 0 -6.10352e-05)" fill="#7A3AEE"/><path d="M1255.47 317.285C1263.99 316.69 1268.45 318.012 1272.54 326.03C1289.54 359.377 1305.78 393.18 1321.97 426.925C1324.18 431.526 1327.47 438.345 1326.04 443.307C1323.91 450.663 1313.77 454.612 1306.94 452.541C1300.98 450.732 1296.66 440.283 1294.18 435.245L1289.17 425.341C1272.69 424.713 1254.12 425.229 1237.3 424.976C1241.54 416.684 1245.54 407.735 1250.08 399.665C1259.18 398.563 1268.42 399.725 1277.84 399.407C1269.88 386.507 1247.74 341.867 1244.87 328.07C1248.4 321.967 1249.75 321.022 1255.47 317.285Z" transform="matrix(0.91276 0 0 0.91276 0 -6.10352e-05)" fill="#0D6EFE"/><path d="M565.504 340.197C590.717 348.737 593.332 361.906 592.684 385.888C592.334 398.81 592.563 412.25 592.08 425.307C608.472 427.923 680.75 413.344 662.485 448.512C651.592 455.817 626.806 452.365 613.847 452.295C593.405 452.185 568.886 459.421 566.235 431.264C565.051 418.681 565.315 407.677 565.37 395.091L565.504 340.197Z" transform="matrix(0.91276 0 0 0.91276 0 -6.10352e-05)" fill="#0D6EFE"/><path d="M1346.09 317.39C1354.28 316.877 1357.62 318.945 1361.99 325.708C1363.41 341.148 1364.28 433.772 1361.04 444.418C1359.65 448.986 1355.25 450.939 1351.32 452.946C1347.92 452.929 1344.45 452.744 1341.32 451.28C1339.13 450.258 1337.28 448.373 1336.54 446.038C1333.78 437.25 1333.14 329.682 1336.68 323.055C1338.43 319.791 1342.87 318.519 1346.09 317.39Z" transform="matrix(0.91276 0 0 0.91276 0 -6.10352e-05)" fill="#0D6EFE"/><path d="M1240.76 340.231C1244.45 344.353 1253.65 364.302 1256.86 370.907C1243.37 395.153 1232.64 427.065 1216.48 449.891C1215.55 451.2 1212.28 452.633 1210.73 453.305C1200.53 452.571 1191.36 444.855 1196.16 434.263C1210.25 403.104 1224.54 370.287 1240.76 340.231Z" transform="matrix(0.91276 0 0 0.91276 0 -6.10352e-05)" fill="#0D6EFE"/><path d="M592.99 316.831C612.408 316.102 635.919 316.682 655.385 318.554C664.968 319.476 670.957 331.992 662.461 339.314C655.262 345.519 648.811 344.885 639.896 344.613C610.557 343.618 594.644 350.7 565.994 334.491C571.683 318.708 577.437 317.833 592.99 316.831Z" transform="matrix(0.91276 0 0 0.91276 0 -6.10352e-05)" fill="#0D6EFE"/><path d="M596.336 372.35C610.574 371.036 637.594 371.953 652.487 372.149C652.595 377.93 653.778 395.222 650.897 398.967C637.931 399.062 609.545 399.915 597.744 398.31C597.783 393.698 598.738 377.157 596.54 374.268L595.179 374.669L594.648 373.493L596.336 372.35Z" transform="matrix(0.91276 0 0 0.91276 0 -6.10352e-05)" fill="#0D6EFE"/><path d="M874.729 381.218C876.11 383.287 875.409 389.79 875.562 393.138C876.811 393.289 877.496 393.342 878.555 394.122C877.676 396.94 876.359 398.667 875.476 401.345C875.281 399.041 875.049 397.249 874.681 394.965C874.357 391.911 874.663 384.598 874.729 381.218Z" transform="matrix(0.91276 0 0 0.91276 0 -6.10352e-05)" fill-opacity="0.027450981" fill="#FEFEFE"/></svg>